the Who perform at superbowl 2010

General
Complete name                    : C:Documents and SettingsMynameisurlzDesktopVidzThe Who (Live) - Superbowl Halftime Feb 7 2010 -[ Ehhhhtozebec].avi
Format                           : AVI
Format/Info                      : Audio Video Interleave
File size                        : 367 MiB
Duration                         : 12mn 11s
Overall bit rate                 : 4 205 Kbps
Movie name                       : 00000
Writing application              : Lavf52.22.1

Video
Format                           : S-Mpeg 4 v2
Codec ID                         : MP42
Codec ID/Info                    : Microsoft MPEG-4 V2
Duration                         : 12mn 11s
Bit rate                         : 4 000 Kbps
Width                            : 720 pixels
Height                           : 480 pixels
Display aspect ratio             : 1.500
Frame rate                       : 29.970 fps
Standard                         : NTSC
Bits/(Pixel*Frame)               : 0.386
Stream size                      : 349 MiB (95%)

Audio
ID                               : 1
Format                           : MPEG Audio
Format version                   : Version 1
Format profile                   : Layer 3
Mode                             : Joint stereo
Format_Settings_ModeExtension    : MS Stereo
Codec ID                         : 55
Codec ID/Hint                    : MP3
Duration                         : 12mn 11s
Bit rate mode                    : Constant
Bit rate                         : 192 Kbps
Channel(s)                       : 2 channels
Sampling rate                    : 44.1 KHz
Stream size                      : 16.8 MiB (5%)
Alignment                        : Aligned on interleaves
Interleave, duration             : 26 ms (0.78 video frame)

